<?xml version="1.0" standalone="no"?>
<!DOCTYPE svg PUBLIC "-//W3C//DTD SVG 20010904//EN"
 "http://www.w3.org/TR/2001/REC-SVG-20010904/DTD/svg10.dtd">
<svg version="1.0" xmlns="http://www.w3.org/2000/svg"
 width="500.000000pt" height="500.000000pt" viewBox="0 0 500.000000 500.000000"
 preserveAspectRatio="xMidYMid meet">
<metadata>
Created by potrace 1.14, written by Peter Selinger 2001-2017
</metadata>
<g transform="translate(0.000000,500.000000) scale(0.100000,-0.100000)"
fill="#000000" stroke="none">
<path d="M0 2500 l0 -2500 2500 0 2500 0 0 2500 0 2500 -2500 0 -2500 0 0
-2500z m2263 417 l489 -281 -29 -26 c-17 -14 -38 -30 -49 -37 -17 -11 -18 -12
-1 -6 17 5 17 3 7 -13 -10 -16 -5 -36 25 -114 21 -52 41 -113 45 -135 4 -22 8
-33 9 -25 0 8 8 84 16 169 15 146 15 154 -2 167 -17 13 -17 14 0 8 22 -8 131
-220 121 -236 -5 -7 -2 -8 6 -3 10 6 12 4 7 -9 -4 -10 -3 -15 3 -11 28 17 3
-23 -45 -74 -52 -55 -54 -59 -45 -91 6 -19 7 -44 4 -55 -13 -42 8 -4 54 96 34
74 53 105 67 107 11 2 53 24 93 48 40 24 78 41 84 38 6 -4 8 -2 4 4 -3 6 -3
13 2 16 4 2 9 -3 10 -12 1 -9 10 -46 20 -81 l19 -65 6 54 c4 29 10 56 15 59
16 11 20 39 9 52 -7 8 5 -2 26 -21 37 -34 57 -80 57 -132 0 -33 -4 -34 -31 -7
-25 25 -43 14 -70 -46 -10 -22 -19 -34 -19 -27 0 6 -9 12 -20 12 -18 0 -19 -3
-10 -20 6 -12 9 -31 6 -43 -4 -13 0 -10 9 8 17 35 20 18 4 -19 -7 -14 -16 -23
-20 -20 -5 3 -6 -1 -4 -8 3 -7 -15 -34 -40 -58 -26 -25 -43 -37 -40 -28 4 10
-3 34 -16 57 -22 40 -41 52 -20 13 6 -11 12 -35 15 -54 l4 -35 -151 -66 c-112
-49 -194 -77 -312 -106 -88 -22 -162 -37 -164 -35 -3 2 11 20 29 39 l34 35
-198 0 -197 0 -105 102 c-57 55 -104 104 -104 107 0 3 90 22 199 41 l200 36
50 -19 c29 -11 48 -24 44 -30 -3 -6 -1 -7 6 -3 6 4 43 -5 81 -20 71 -28 90
-39 45 -28 -31 8 -32 -5 -4 -35 17 -18 19 -25 8 -31 -11 -7 -9 -13 6 -30 l20
-22 32 37 c18 21 30 42 27 46 -3 5 -1 9 4 9 5 0 17 10 25 23 15 23 14 24 -76
78 l-92 54 95 5 c65 4 89 8 75 14 -11 4 -97 40 -192 78 l-171 70 -94 97 c-99
101 -154 168 -146 177 3 3 101 -20 218 -51 117 -30 215 -55 219 -55 3 0 -59
36 -139 79 -379 208 -424 235 -442 271 -24 49 -72 163 -102 244 -23 60 -24 67
-8 62 9 -4 237 -134 505 -289z"/>
<path d="M2684 2182 l1 -29 32 21 c42 27 41 36 -1 36 -30 0 -33 -3 -32 -28z"/>
<path d="M2440 2100 c8 -5 20 -10 25 -10 6 0 3 5 -5 10 -8 5 -19 10 -25 10 -5
0 -3 -5 5 -10z"/>
</g>
</svg>
