<svg width="22" height="22" viewBox="0 0 22 22" fill="none" xmlns="http://www.w3.org/2000/svg">
<path d="M11 0C4.9543 0 0 4.9543 0 11C0 17.0457 4.9543 22 11 22C17.0457 22 22 17.0457 22 11C22 4.9543 17.0457 0 11 0Z" fill="#57D9AD"/>
<path d="M22 11C22 17.0457 17.0457 22 11 22V0C17.0457 0 22 4.9543 22 11Z" fill="#26BFA6"/>
<path d="M17.2004 8.56368L11 14.7511L9.71092 16.0402L4.79959 11.1418L6.63006 9.31134L9.71092 12.405L11 11.116L15.3699 6.73322L17.2004 8.56368Z" fill="#F2F2F2"/>
<path d="M17.2004 8.56368L11 14.7511V11.116L15.3699 6.73322L17.2004 8.56368Z" fill="#E7E7F2"/>
</svg>
